<svg width="12" height="12" viewBox="0 0 12 12" fill="none" xmlns="http://www.w3.org/2000/svg">
<path d="M11.9998 2.94044C11.9998 2.96623 11.9998 2.99202 11.9998 2.99202C11.9207 2.99202 11.8415 2.99202 11.7624 2.99202C11.7097 2.99202 11.6833 2.96623 11.6833 2.86307C11.6569 2.88886 11.6305 2.83728 11.6305 2.91465C11.6569 2.91465 11.6833 2.91465 11.6569 2.94044C11.6305 2.99202 11.6041 3.04361 11.5778 2.96623V2.94044C11.5778 2.91465 11.5778 2.88886 11.5514 2.91465C11.5514 2.91465 11.5514 2.94044 11.5514 2.96623C11.5514 3.01782 11.5514 3.01782 11.525 3.01782C11.4722 2.99202 11.525 2.94044 11.525 2.88886C11.4986 2.94044 11.4722 2.81149 11.4459 2.91465V2.94044C11.4459 2.96623 11.4459 2.96623 11.4459 2.99202C11.4459 2.99202 11.4459 2.99202 11.4459 3.01782C11.3404 3.0694 11.2612 2.96623 11.1557 2.88886C11.1293 2.86307 11.1293 2.88886 11.103 2.91465C11.0502 3.01782 11.0238 3.12098 10.9447 2.96623C10.9183 2.94044 10.8919 2.94044 10.8656 2.99202C10.8392 2.94044 10.8128 2.91465 10.7864 2.86307V2.83728V2.86307C10.76 2.86307 10.76 2.83728 10.7337 2.83728C10.7337 2.63095 10.6545 2.73411 10.6282 2.7599C10.5754 2.81149 10.5754 2.7599 10.549 2.70832C10.4963 2.78569 10.549 2.81149 10.5754 2.83728C10.4435 2.88886 10.3116 2.94044 10.1797 2.99202C10.1006 3.01782 10.0478 2.96623 9.99508 2.91465C9.96871 2.83728 9.94233 2.91465 9.91595 2.86307H9.88957C9.86319 2.91465 9.86319 3.0694 9.81044 2.88886C9.78406 2.81149 9.75768 2.86307 9.7313 2.88886C9.59941 3.0694 9.52028 2.88886 9.44115 2.81149C9.44115 2.86307 9.41477 2.88886 9.41477 2.86307C9.36201 2.73411 9.28288 2.83728 9.23012 2.83728C9.23012 2.83728 9.23012 2.81149 9.20375 2.81149H9.17737C9.15099 2.81149 9.15099 2.81149 9.12461 2.81149C9.12461 2.83728 9.12461 2.86307 9.15099 2.86307C9.12461 2.88886 9.09823 2.96623 9.07186 2.86307C9.07186 2.88886 9.04548 2.88886 9.04548 2.91465C8.96634 2.91465 8.88721 2.78569 8.7817 2.81149H8.75532C8.72894 2.81149 8.72894 2.68253 8.70256 2.83728C8.70256 2.96623 8.64981 2.96623 8.57067 2.91465C8.51792 2.91465 8.43879 3.04361 8.41241 2.83728C8.38603 2.83728 8.33327 2.86307 8.3069 2.86307C8.28052 2.83728 8.28052 2.81149 8.25414 2.78569C8.22776 2.83728 8.20138 2.88886 8.20138 2.94044C8.12225 2.94044 8.04312 2.86307 7.99036 2.78569C7.96398 2.7599 7.96398 2.73411 7.9376 2.73411C7.9376 2.73411 7.93761 2.73411 7.91123 2.73411C7.85847 2.81149 7.80572 2.65674 7.75296 2.7599C7.75296 2.78569 7.75296 2.81149 7.77934 2.81149C7.72658 2.94044 7.67383 2.96623 7.62107 2.7599C7.62107 2.78569 7.59469 2.81149 7.59469 2.81149C7.48918 2.65674 7.41005 2.94044 7.30454 2.91465C7.27816 2.91465 7.25178 2.94044 7.25178 2.86307C7.06713 2.99202 6.88249 2.94044 6.69784 2.86307C6.67146 2.83728 6.69784 2.78569 6.67146 2.73411C6.67146 2.73411 6.67146 2.73411 6.64509 2.73411C6.64509 2.73411 6.64509 2.73411 6.61871 2.73411C6.56595 2.70832 6.59233 2.7599 6.59233 2.78569C6.46044 2.91465 6.32855 2.78569 6.22304 2.81149H6.19666C6.17028 2.86307 6.14391 2.88886 6.11753 2.81149C6.11753 2.78569 6.11753 2.7599 6.11753 2.73411H6.14391H6.11753C6.06477 2.73411 6.09115 2.78569 6.11753 2.81149C6.03839 2.7599 5.95926 2.83728 5.9065 2.81149C5.88013 2.81149 5.85375 2.78569 5.85375 2.83728C5.80099 2.86307 5.77462 2.83728 5.72186 2.81149C5.56359 2.86307 5.40532 2.88886 5.24706 2.83728C4.98328 2.83728 4.69312 2.86307 4.42934 2.81149C4.24469 2.78569 4.06005 2.83728 3.84903 2.83728C3.638 2.83728 3.4006 2.78569 3.18958 2.81149C2.97855 2.83728 2.76753 2.83728 2.55651 2.86307C2.31911 2.86307 2.10808 2.83728 1.87068 2.83728C1.81793 2.83728 1.81792 2.7599 1.81792 2.70832C1.76517 2.26987 1.76517 1.83142 1.76517 1.39297C1.76517 1.26401 1.76517 1.16085 1.68604 1.05768C1.76517 1.03189 1.8443 0.98031 1.76517 0.799772C1.73879 0.77398 1.73879 0.722398 1.76517 0.696607C1.81793 0.722398 1.81792 0.670816 1.81792 0.619233C1.76517 0.54186 1.81792 0.464486 1.81792 0.412903C1.81792 0.0776178 1.92344 0.0260353 2.0817 0.0518266C2.451 0.180783 2.84666 0.000244141 3.26871 0.000244141C3.76989 0.0260353 4.29745 0.0260353 4.79863 0.0260353C5.16792 0.0260353 5.56359 0.0260353 5.93288 0.0776178C6.30217 0.1292 6.67146 0.1292 7.04076 0.0776178C7.54194 0.0260353 8.04312 0.0776178 8.5443 0.0776178C8.75532 0.0776178 8.96634 0.103409 9.17737 0.103409C9.52028 0.103409 9.83682 0.154991 10.1797 0.103409C10.3644 0.0776178 10.5754 0.0776178 10.7864 0.0776178C11.0502 0.0518266 11.2876 0.180783 11.5514 0.0518266C11.6041 0.0260353 11.6569 0.0776178 11.6833 0.180783C11.736 0.464486 11.7888 0.77398 11.7624 1.05768C11.736 1.3156 11.7888 1.52193 11.7888 1.75405C11.7888 1.93458 11.8943 1.93458 11.9207 2.06354C11.9998 2.32145 11.9734 2.63095 11.9998 2.94044ZM5.6691 2.81149C5.6691 2.83728 5.6691 2.83728 5.6691 2.81149C5.64273 2.83728 5.64273 2.83728 5.6691 2.81149C5.6691 2.83728 5.6691 2.83728 5.6691 2.81149ZM8.22776 2.81149C8.20139 2.81149 8.17501 2.81149 8.14863 2.81149V2.83728C8.17501 2.83728 8.20139 2.81149 8.22776 2.81149ZM8.59705 2.86307C8.57068 2.86307 8.57068 2.83728 8.5443 2.83728C8.5443 2.86307 8.51792 2.91465 8.5443 2.94044C8.57068 2.94044 8.59705 2.91465 8.59705 2.86307ZM9.07186 2.81149C9.07186 2.78569 9.07186 2.7599 9.04548 2.73411C9.04548 2.78569 9.07186 2.81149 9.07186 2.81149ZM9.99508 2.83728C9.99508 2.83728 9.99508 2.81149 9.99508 2.83728C9.96871 2.83728 9.96871 2.83728 9.99508 2.83728C9.96871 2.83728 9.96871 2.83728 9.99508 2.83728ZM11.0502 2.91465C11.0502 2.91465 11.0766 2.91465 11.0502 2.91465C11.0766 2.91465 11.0766 2.91465 11.0502 2.91465C11.0502 2.91465 11.0502 2.88886 11.0502 2.91465Z" fill="#4776BD"/>
<path d="M8.74598 10.4712C8.7196 10.4712 8.69322 10.4712 8.69322 10.4454C8.69322 10.3681 8.69322 10.2907 8.7196 10.1875C8.7196 10.1359 8.74598 10.1102 8.85149 10.1102C8.82511 10.0844 8.87787 10.0586 8.82511 10.0586C8.82511 10.0844 8.82511 10.1102 8.79873 10.0844C8.74598 10.0586 8.69322 10.0328 8.77236 10.007H8.79873C8.82511 10.007 8.85149 10.007 8.82511 9.9812C8.82511 9.9812 8.79874 9.9812 8.77236 9.9812C8.7196 9.9812 8.7196 9.9812 8.7196 9.95541C8.74598 9.90382 8.79874 9.95541 8.85149 9.95541C8.79874 9.92961 8.93063 9.90382 8.82511 9.87803H8.79873C8.77236 9.87803 8.77236 9.87803 8.74598 9.85224C8.74598 9.85224 8.74598 9.85224 8.7196 9.85224C8.66685 9.74908 8.77236 9.6717 8.85149 9.56854C8.87787 9.54275 8.85149 9.54275 8.82511 9.51695C8.7196 9.46537 8.61409 9.41379 8.77236 9.36221C8.79874 9.33642 8.79874 9.31063 8.77236 9.28483C8.82511 9.25904 8.85149 9.23325 8.90425 9.20746H8.93062H8.90425C8.90425 9.18167 8.93062 9.18167 8.93062 9.15588C9.14165 9.18167 9.03614 9.0785 9.00976 9.05271C8.957 9.00113 9.00976 9.00113 9.06251 8.97534C8.98338 8.92376 8.957 8.97534 8.93062 9.00113C8.87787 8.87217 8.82511 8.71743 8.77236 8.58847C8.74598 8.5111 8.79874 8.45952 8.85149 8.40793C8.93063 8.38214 8.85149 8.33056 8.90425 8.33056V8.30477C8.85149 8.27898 8.69322 8.27898 8.87787 8.22739C8.957 8.2016 8.90425 8.17581 8.87787 8.15002C8.69322 8.02106 8.87787 7.94369 8.957 7.84053C8.90425 7.84053 8.87787 7.81474 8.90425 7.81474C9.03614 7.76315 8.93062 7.68578 8.93062 7.6342C8.93062 7.6342 8.957 7.6342 8.957 7.60841V7.58261C8.957 7.55682 8.957 7.55682 8.957 7.53103C8.93063 7.53103 8.90425 7.53103 8.90425 7.55682C8.87787 7.53103 8.79874 7.50524 8.90425 7.47945C8.87787 7.47945 8.87787 7.45366 8.85149 7.45366C8.85149 7.37628 8.98338 7.29891 8.957 7.19575V7.16996C8.957 7.14416 9.08889 7.14416 8.93062 7.11837C8.79873 7.11837 8.79874 7.041 8.85149 6.98942C8.87787 6.93783 8.7196 6.83467 8.957 6.83467C8.957 6.78309 8.93062 6.7573 8.93062 6.70571C8.957 6.67992 8.98338 6.67992 9.00976 6.65413C8.957 6.62834 8.90425 6.60255 8.85149 6.57676C8.85149 6.49938 8.93063 6.42201 9.00976 6.34464C9.03614 6.31885 9.06251 6.31885 9.06251 6.29305C9.06251 6.29305 9.06251 6.29305 9.06251 6.26726C8.98338 6.21568 9.14165 6.1641 9.03614 6.11252C9.00976 6.11252 8.98338 6.11252 8.98338 6.13831C8.85149 6.06093 8.85149 6.00935 9.03614 5.98356C9.00976 5.98356 8.98338 5.95777 8.98338 5.95777C9.14165 5.82881 8.85149 5.75144 8.87787 5.64827C8.87787 5.62248 8.85149 5.59669 8.93062 5.59669C8.82511 5.41615 8.85149 5.20982 8.957 5.02929C8.98338 5.00349 9.03614 5.02929 9.08889 5.00349C9.08889 5.00349 9.08889 5.00349 9.08889 4.9777C9.08889 4.9777 9.08889 4.9777 9.08889 4.95191V4.92612C9.11527 4.87454 9.06251 4.90033 9.03614 4.90033C8.90425 4.77137 9.03614 4.64242 9.03614 4.51346V4.48767C8.98338 4.46188 8.957 4.43609 9.03614 4.4103C9.06251 4.4103 9.08889 4.4103 9.11527 4.4103V4.43609V4.4103C9.11527 4.35871 9.06251 4.3845 9.03614 4.4103C9.08889 4.33292 9.00976 4.25555 9.03614 4.17818C9.03614 4.15238 9.06251 4.12659 9.00976 4.12659C8.98338 4.07501 9.00976 4.04922 9.03614 3.99764C8.98338 3.84289 8.957 3.68814 9.00976 3.5334C9.00976 3.24969 8.98338 2.99178 9.03614 2.70808C9.06251 2.52754 9.00976 2.32121 9.03614 2.14067C9.03614 1.90855 9.08889 1.67643 9.06251 1.4701C9.03614 1.26377 9.03614 1.05744 9.03614 0.825319C9.03614 0.593198 9.06252 0.361077 9.08889 0.128956C9.08889 0.0773736 9.16803 0.0773736 9.22078 0.0773736C9.66921 0.0257912 10.1176 0.0515824 10.5661 0.0515824C10.6979 0.0515824 10.8035 0.0515824 10.909 0C10.9353 0.0773736 10.9881 0.154747 11.1727 0.0773736C11.1991 0.0515824 11.2519 0.0515824 11.2783 0.0773736C11.2255 0.128956 11.3046 0.128956 11.331 0.128956C11.4102 0.0773736 11.4893 0.128956 11.542 0.128956C11.885 0.128956 11.9377 0.257912 11.885 0.412659C11.8058 0.825319 11.9905 1.23798 11.9641 1.67643C11.9377 2.19225 11.9377 2.70808 11.9113 3.2239C11.885 3.61077 11.9113 3.99764 11.8322 4.35871C11.7531 4.71979 11.7794 5.10666 11.8058 5.46774C11.8586 5.98356 11.7794 6.49938 11.7794 6.98942C11.7794 7.19575 11.7531 7.40208 11.7267 7.6342C11.7003 7.96948 11.6739 8.30477 11.7003 8.64005C11.7267 8.84638 11.7003 9.05271 11.7267 9.23325C11.7531 9.49116 11.5948 9.74908 11.7531 10.007C11.7794 10.0586 11.7267 10.1102 11.6212 10.1359C11.331 10.1875 11.0145 10.2391 10.7243 10.1875C10.4605 10.1617 10.2495 10.2133 10.0121 10.1875C9.82748 10.1875 9.82747 10.2907 9.69558 10.3165C9.37905 10.4712 9.06251 10.4454 8.74598 10.4712ZM8.957 6.65413C8.957 6.62834 8.957 6.60255 8.957 6.57676H8.93062C8.957 6.60255 8.957 6.62834 8.957 6.65413ZM8.90425 7.01521C8.90425 6.98942 8.93062 6.98942 8.93062 6.96363C8.90425 6.96363 8.85149 6.93783 8.82511 6.96363C8.82511 6.98942 8.85149 7.01521 8.90425 7.01521ZM8.93062 7.50524C8.957 7.50524 8.98338 7.50524 9.00976 7.47945C9.00976 7.47945 9.00976 7.47945 9.00976 7.45366C8.98338 7.47945 8.957 7.47945 8.93062 7.50524ZM8.90425 8.43372C8.90425 8.43372 8.93062 8.40793 8.90425 8.43372C8.90425 8.40793 8.90425 8.40793 8.90425 8.43372C8.90425 8.40793 8.90425 8.40793 8.90425 8.43372ZM9.00976 8.97534C9.00976 8.94955 9.00976 8.94955 9.00976 8.97534C9.00976 8.94955 9.00976 8.94955 9.00976 8.97534ZM8.79873 9.51695C8.79873 9.51695 8.82511 9.51695 8.79873 9.51695C8.82511 9.51695 8.79873 9.51695 8.79873 9.51695Z" fill="#4776BD"/>
<path d="M11.691 2.62117C11.7096 2.63965 11.7282 2.65813 11.705 2.68114C11.6355 2.75016 11.5659 2.81918 11.4545 2.89273C11.4081 2.93875 11.3663 2.94328 11.2918 2.86936C11.2872 2.91085 11.2267 2.8969 11.264 2.93386C11.2872 2.91085 11.3104 2.88784 11.3058 2.92933C11.3199 2.98929 11.3339 3.04926 11.2549 3.01683L11.2362 2.99835C11.2176 2.97987 11.199 2.96139 11.1944 3.00288C11.1944 3.00288 11.213 3.02136 11.2317 3.03984C11.2689 3.07679 11.2689 3.07679 11.2457 3.0998C11.1807 3.12734 11.1899 3.04437 11.1526 3.00741C11.1667 3.06737 11.0503 2.99799 11.1016 3.09491L11.1203 3.11339C11.1389 3.13187 11.1389 3.13187 11.1343 3.17335C11.1343 3.17335 11.1343 3.17335 11.153 3.19183C11.0974 3.32082 10.9534 3.31593 10.8047 3.35252C10.7629 3.35705 10.7815 3.37553 10.7769 3.41701C10.8051 3.53694 10.8332 3.65687 10.675 3.59201C10.6332 3.59654 10.61 3.61955 10.6054 3.66104C10.545 3.64709 10.5032 3.65162 10.4427 3.63767L10.4241 3.61919L10.4427 3.63767C10.4195 3.66067 10.4009 3.64219 10.3777 3.6652C10.2519 3.49436 10.2336 3.66031 10.229 3.7018C10.2199 3.78477 10.1827 3.74781 10.1222 3.73386C10.1317 3.83531 10.1967 3.80778 10.2385 3.80325C10.1598 3.95524 10.0579 4.13024 9.97922 4.28224C9.92827 4.36974 9.84462 4.37879 9.76098 4.38785C9.6819 4.35542 9.6914 4.45687 9.65414 4.41992L9.63095 4.44292C9.64501 4.50289 9.75678 4.61376 9.58 4.53043C9.50092 4.498 9.51498 4.55796 9.51041 4.59945C9.52484 4.84384 9.32487 4.78351 9.17621 4.8201C9.21346 4.85706 9.2089 4.89854 9.19027 4.88007C9.05074 4.83369 9.05567 4.97662 9.00929 5.02264C9.00929 5.02264 8.99066 5.00416 8.96746 5.02717L8.94427 5.05018C8.92108 5.07318 8.92108 5.07318 8.89788 5.09619C8.91651 5.11467 8.93514 5.13315 8.95833 5.11014C8.95377 5.15163 8.98646 5.23007 8.88875 5.17916C8.90738 5.19764 8.88419 5.22065 8.90282 5.23913C8.83323 5.30815 8.67051 5.28478 8.59637 5.39529L8.57317 5.41829C8.54998 5.4413 8.45684 5.34891 8.54541 5.48279C8.63856 5.57518 8.56897 5.6442 8.48533 5.65326C8.42031 5.6808 8.43931 5.8837 8.27166 5.71739C8.22527 5.7634 8.2207 5.80489 8.17432 5.85091C8.1325 5.85543 8.11387 5.83696 8.07204 5.84148C8.08611 5.90145 8.10017 5.96141 8.11423 6.02138C8.04465 6.0904 7.91919 6.10399 7.79372 6.11757C7.7519 6.1221 7.73327 6.10362 7.71008 6.12663C7.71008 6.12663 7.71008 6.12663 7.68688 6.14964C7.69638 6.25109 7.53822 6.18623 7.56635 6.30616C7.58498 6.32464 7.60361 6.34312 7.6268 6.32011C7.65036 6.48153 7.60397 6.52754 7.45038 6.4212C7.46901 6.43968 7.46445 6.48116 7.46445 6.48116C7.23671 6.48533 7.37204 6.75762 7.26064 6.83117C7.23744 6.85417 7.23288 6.89566 7.17699 6.84023C7.08915 7.07519 6.88497 7.24077 6.6481 7.32791C6.60628 7.33244 6.59222 7.27247 6.53177 7.25852C6.53177 7.25852 6.53177 7.25852 6.50857 7.28153C6.50857 7.28153 6.50857 7.28153 6.48538 7.30454L6.46219 7.32755C6.39717 7.35508 6.45762 7.36903 6.47625 7.38751C6.45342 7.59494 6.24432 7.61758 6.12835 7.73262L6.10515 7.75563C6.11922 7.81559 6.11465 7.85708 6.03557 7.82465C6.01694 7.80617 5.99832 7.78769 5.97969 7.76921L6.00288 7.74621L5.97969 7.76921C5.9333 7.81523 5.99375 7.82918 6.03557 7.82465C5.92874 7.85672 5.91504 7.98117 5.82683 8.03172C5.80364 8.05473 5.76181 8.05925 5.79907 8.09621C5.77131 8.1607 5.72949 8.16523 5.66448 8.19277C5.56257 8.36777 5.44204 8.52429 5.26562 8.62538C5.01049 8.87846 4.79718 9.12702 4.5048 9.34314C4.32381 9.48571 4.17552 9.70673 3.99454 9.8493C3.78579 10.0564 3.53979 10.2265 3.37287 10.429C3.20595 10.6316 3.0204 10.8156 2.81166 11.0227C2.60292 11.2297 2.37555 11.4183 2.14818 11.6069C2.10179 11.6529 2.04591 11.5975 2.00865 11.5605C1.64558 11.2924 1.3521 10.9553 1.03542 10.6411C0.942274 10.5487 0.867762 10.4748 0.746862 10.4469C0.797815 10.3594 0.830139 10.2535 0.63016 10.1931C0.588339 10.1977 0.551082 10.1607 0.555647 10.1192C0.639291 10.1102 0.583405 10.0547 0.564777 10.0362C0.462505 10.0268 0.453009 9.92536 0.415752 9.88841C0.173585 9.64818 0.252296 9.49619 0.428714 9.3951C0.855696 9.08242 1.0964 8.58495 1.50932 8.2123C1.99182 7.77063 2.45569 7.31048 2.93819 6.86881C3.30472 6.54218 3.634 6.17859 4.01459 5.91192C4.39519 5.64526 4.72446 5.28167 5.03055 4.94108C5.45716 4.44398 5.97692 4.03927 6.4176 3.60213C6.60315 3.41807 6.80732 3.25248 7.03469 3.0639C7.35484 2.78328 7.67498 2.50266 7.95787 2.18509C8.12479 1.98255 8.32897 1.81697 8.4727 1.63744C8.686 1.38888 9.02971 1.26968 9.14988 0.928736C9.17764 0.864243 9.26128 0.855185 9.35899 0.906093C9.61028 1.06334 9.88021 1.23907 10.0387 1.48835C10.2018 1.69615 10.3972 1.79796 10.5417 1.98728C10.6721 2.11663 10.7649 2.0246 10.8812 2.09399C11.2439 2.17769 11.4442 2.42244 11.691 2.62117ZM8.1093 5.87844C8.08611 5.90145 8.06291 5.92446 8.03972 5.94746L8.05835 5.96594C8.06291 5.92446 8.08611 5.90145 8.1093 5.87844ZM8.47127 5.5933C8.44807 5.6163 8.42945 5.59782 8.40625 5.62083C8.42488 5.63931 8.43894 5.69927 8.48077 5.69475C8.50396 5.67174 8.50852 5.63025 8.47127 5.5933ZM8.89332 5.13768C8.87469 5.1192 8.85606 5.10072 8.81424 5.10525C8.81424 5.10525 8.81424 5.10525 8.79105 5.12826C8.83287 5.12373 8.8515 5.14221 8.89332 5.13768ZM9.74692 4.32789C9.74692 4.32789 9.7051 4.33242 9.74692 4.32789C9.72372 4.3509 9.72372 4.3509 9.74692 4.32789C9.72372 4.3509 9.72372 4.3509 9.74692 4.32789ZM10.1595 3.77082C10.1363 3.79382 10.1363 3.79382 10.1595 3.77082C10.1363 3.79382 10.1363 3.79382 10.1595 3.77082ZM10.7956 3.43549C10.7956 3.43549 10.7769 3.41701 10.7956 3.43549C10.7769 3.41701 10.7956 3.43549 10.7956 3.43549Z" fill="#4776BD"/>
</svg>
