<svg width="448" height="178" viewBox="0 0 448 178" fill="none" xmlns="http://www.w3.org/2000/svg">
<rect opacity="0.8" y="184" width="163.413" height="11.5804" transform="rotate(-90 0 184)" fill="#C9D9E2"/>
<rect opacity="0.8" x="104.224" y="184" width="174.993" height="11.5804" transform="rotate(-90 104.224 184)" fill="#C9D9E2"/>
<rect opacity="0.8" x="208.448" y="184" width="132.531" height="11.5804" transform="rotate(-90 208.448 184)" fill="#C9D9E2"/>
<rect opacity="0.8" x="312.671" y="184" width="164.699" height="11.5804" transform="rotate(-90 312.671 184)" fill="#C9D9E2"/>
<rect opacity="0.8" x="416.895" y="184" width="155.692" height="11.5804" transform="rotate(-90 416.895 184)" fill="#C9D9E2"/>
<rect opacity="0.8" x="14.1538" y="184" width="171.133" height="12.8671" transform="rotate(-90 14.1538 184)" fill="#C9D9E2"/>
<rect opacity="0.8" x="118.378" y="184" width="184" height="12.8671" transform="rotate(-90 118.378 184)" fill="#C9D9E2"/>
<rect opacity="0.8" x="222.601" y="184" width="144.112" height="12.8671" transform="rotate(-90 222.601 184)" fill="#C9D9E2"/>
<rect opacity="0.8" x="326.825" y="184" width="176.28" height="11.5804" transform="rotate(-90 326.825 184)" fill="#C9D9E2"/>
<rect opacity="0.8" x="431.049" y="184" width="168.559" height="11.5804" transform="rotate(-90 431.049 184)" fill="#C9D9E2"/>
<rect opacity="0.8" x="28.3076" y="184" width="150.545" height="12.8671" transform="rotate(-90 28.3076 184)" fill="#C9D9E2"/>
<rect opacity="0.8" x="132.531" y="184" width="160.839" height="12.8671" transform="rotate(-90 132.531 184)" fill="#C9D9E2"/>
<rect opacity="0.8" x="236.755" y="184" width="115.804" height="12.8671" transform="rotate(-90 236.755 184)" fill="#C9D9E2"/>
<rect opacity="0.8" x="340.979" y="184" width="146.685" height="12.8671" transform="rotate(-90 340.979 184)" fill="#C9D9E2"/>
<rect opacity="0.8" x="445.203" y="184" width="138.965" height="12.8671" transform="rotate(-90 445.203 184)" fill="#C9D9E2"/>
<rect opacity="0.8" x="43.7483" y="184" width="145.399" height="11.5804" transform="rotate(-90 43.7483 184)" fill="#C9D9E2"/>
<rect opacity="0.8" x="147.972" y="184" width="147.972" height="11.5804" transform="rotate(-90 147.972 184)" fill="#C9D9E2"/>
<rect opacity="0.8" x="252.196" y="184" width="93.9301" height="11.5804" transform="rotate(-90 252.196 184)" fill="#C9D9E2"/>
<rect opacity="0.8" x="355.133" y="184" width="138.965" height="12.8671" transform="rotate(-90 355.133 184)" fill="#C9D9E2"/>
</svg>
