<svg width="342" height="124" viewBox="0 0 342 124" fill="none" xmlns="http://www.w3.org/2000/svg">
<path d="M1 121.261L114.441 115.913" stroke="#E4DED5" stroke-width="4.30409"/>
<path d="M1 94.5239L114.823 59.7658L152.637 42.1957L171.735 53.2725L190.833 51.3627L209.931 38.3762L228.265 23.4798L246.599 16.2226L266.078 4L285.176 38.3762L304.656 35.3205L322.608 20.8061L342.088 18.1324" stroke="#E4DED5" stroke-width="4.30409"/>
<path d="M114.441 114.768L152.828 118.969L171.353 112.858L190.642 113.813L209.74 109.42L228.265 107.702H246.981L265.887 108.847L284.985 113.049L303.892 115.341L323.181 113.049L342.088 109.802" stroke="#E4DED5" stroke-width="4.30409"/>
<path d="M114.441 117.25L152.637 116.678L171.353 116.296L190.069 111.33L209.167 114.386L227.883 113.622L247.172 111.521L266.078 108.274L285.176 112.285L304.083 114.195L322.99 110.566L341.897 102.545" stroke="#E4DED5" stroke-width="4.30409"/>
</svg>
