<svg width="381" height="86" viewBox="0 0 381 86" fill="none" xmlns="http://www.w3.org/2000/svg">
<path d="M47.6882 187.64L47.6882 1.73828L47.6882 187.64Z" fill="#F0E6DB"/>
<path d="M47.6882 187.64L47.6882 1.73828" stroke="#F0E6DB" stroke-width="2" stroke-linecap="round" stroke-dasharray="0.04 9.39"/>
<path d="M150.287 187.107L150.287 1.20508L150.287 187.107Z" fill="#F0E6DB"/>
<path d="M150.287 187.107L150.287 1.20508" stroke="#F0E6DB" stroke-width="2" stroke-linecap="round" stroke-dasharray="0.04 9.39"/>
<path d="M253.462 187.107L253.462 1.20508L253.462 187.107Z" fill="#F0E6DB"/>
<path d="M253.462 187.107L253.462 1.20508" stroke="#F0E6DB" stroke-width="2" stroke-linecap="round" stroke-dasharray="0.04 9.39"/>
<path d="M356.061 187.107L356.061 1.20508L356.061 187.107Z" fill="#F0E6DB"/>
<path d="M356.061 187.107L356.061 1.20508" stroke="#F0E6DB" stroke-width="2" stroke-linecap="round" stroke-dasharray="0.04 9.39"/>
<path d="M98.9877 187.107L98.9877 1.20508L98.9877 187.107Z" fill="#F0E6DB"/>
<path d="M98.9877 187.107L98.9877 1.20508" stroke="#F0E6DB" stroke-width="2" stroke-linecap="round" stroke-dasharray="0.04 9.39"/>
<path d="M201.587 187.107L201.587 1.20508L201.587 187.107Z" fill="#F0E6DB"/>
<path d="M201.587 187.107L201.587 1.20508" stroke="#F0E6DB" stroke-width="2" stroke-linecap="round" stroke-dasharray="0.04 9.39"/>
<path d="M304.762 187.107L304.762 1.20508L304.762 187.107Z" fill="#F0E6DB"/>
<path d="M304.762 187.107L304.762 1.20508" stroke="#F0E6DB" stroke-width="2" stroke-linecap="round" stroke-dasharray="0.04 9.39"/>
<path d="M1 11.6289H11.3752L16.2746 13.6654H62.9628L67.8622 15.411H315.425L320.325 13.3745H351.162L356.638 15.411L386.899 14.5382L392.663 17.4474H422.635L428.111 19.193H433.587L438.486 20.9386H449.15L464.424 26.7571H475.088L479.987 28.2117L490.362 35.7758L495.838 43.6308L500.449 54.3951L510.536 111.999" stroke="#F0E6DB" stroke-width="2.18431"/>
<path d="M1.28821 20.6484H6.18759L11.087 22.6849H32.1255L37.0249 24.7214H62.3864L68.4386 26.467H72.7616L78.5256 28.5035H88.6125L93.8001 29.9581H125.214L129.825 31.9946H144.811L150.575 33.7401H160.662L165.85 31.9946L170.749 33.7401H196.399L202.163 35.7766H232.424L237.9 37.8131H258.362L263.549 39.5587H269.025L273.636 41.0133H284.3L289.487 43.3407H305.338L310.526 41.0133H320.036L324.936 43.3407H330.412L335.311 44.7953H345.686L350.874 47.1228L356.061 44.7953L361.537 47.1228H387.475L397.274 50.6139H402.461L413.125 54.3959H423.5L438.774 60.2144H443.962L449.726 64.2874L464.424 69.5241L469.035 72.7243L474.799 75.0517L484.598 82.0339L492.668 94.2528L499.873 111.418L505.925 129.746L509.96 156.511V159.129" stroke="#F0E6DB" stroke-width="2.18431"/>
<path d="M1.28821 20.6484L11.087 24.4305H16.2746L26.9379 28.2125L32.1255 31.9946L41.9243 35.7766L47.6883 39.8496L67.574 46.8318L73.338 50.6139L88.6125 56.4324H93.8001L98.9877 58.178L103.599 61.96L113.974 61.3782L119.738 63.7056H125.214L139.624 68.9422H145.1L150.575 67.4876L154.898 68.9422H166.138L170.461 70.9787H196.687L206.774 74.7608H212.826L217.149 76.7973H233.288L237.323 78.5428H253.462L263.261 82.3249H279.689L284.3 84.3614H304.762L309.661 85.816L315.137 83.7795L320.325 85.816H356.061L361.249 89.598H366.148L372.2 91.3436H392.951L397.562 93.671L402.173 96.8712L407.649 98.9077H418.312L423.212 100.944H428.687L438.774 104.435H443.962L449.15 106.181H454.049L460.101 109.09L463.848 111.708L474.511 115.49L479.987 119.563L484.886 120.727L492.091 127.128L500.161 135.855L510.824 158.257" stroke="#F0E6DB" stroke-width="2.18431"/>
<path d="M1.28821 28.5029L6.18759 32.285L10.7988 33.4487H16.851L21.7503 35.7761H26.9379L32.1255 39.5581H37.3131L41.6361 41.0128L47.4001 45.0857L52.5876 46.8313H57.487L67.2858 50.3224H74.4908L88.6125 56.4319L99.5641 57.8865H109.363L125.79 63.705H135.013L139.624 65.4506L145.1 63.705H151.152L155.475 65.4506H170.749L176.225 67.4871L181.413 65.4506L192.076 69.2326H207.062L211.962 67.4871L216.861 69.2326H222.337L227.813 70.9782H238.188L243.375 73.3056H268.737L273.636 74.7602H278.536L284.588 72.4328H300.151L304.185 74.7602H320.613L325.224 76.7967H335.887L341.363 78.5423H366.725L371.624 80.5788H377.388L382.576 82.3243L386.61 85.8154H402.461L412.26 89.5975H418.024L428.399 93.0886L433.587 97.1616H438.198L454.337 102.689L459.237 107.926H464.712L469.9 110.253L479.699 117.817L485.174 119.563L489.786 123.054L499.873 137.309L505.348 149.819L510.824 175.13" stroke="#F0E6DB" stroke-width="2.18431"/>
<path d="M1.28821 41.3031L6.18759 39.2666H11.6634L16.2746 41.3031H21.7503L26.6497 44.7942L31.8373 46.5398L36.7367 50.6127L42.2125 56.1403L48.2647 58.1768L53.164 61.9589L62.6746 65.45L77.9492 76.2143L83.4249 78.5417H88.9007L98.9877 82.0328L103.887 87.8513L109.075 86.1058H114.262L119.45 87.8513H124.637L129.537 89.5969L134.724 93.088H140.488L145.1 95.1245H160.95L165.562 97.161H186.6L191.788 99.1975L196.687 98.6156L201.875 100.652H217.726L222.625 102.689L227.524 100.652L237.611 104.434H263.838L273.636 108.216H279.4L284.3 110.253L289.487 108.216L294.387 109.962H335.887L345.974 113.744H371.624L376.812 115.78L381.999 113.744L387.187 115.78L392.374 113.744L402.461 117.526H407.937L412.836 119.271H418.6L423.212 121.308H428.399L433.299 123.053H448.861L464.424 128.872H470.188L479.122 132.072L484.598 136.145L490.074 138.182L500.449 149.528L510.536 172.511" stroke="#F0E6DB" stroke-width="2.18431"/>
</svg>
