<svg width="57" height="19" viewBox="0 0 57 19" fill="none" xmlns="http://www.w3.org/2000/svg">
<path fill-rule="evenodd" clip-rule="evenodd" d="M55.6464 7.9873V8.07054H55.4101V8.68665H55.3133V8.07054H55.0768V7.9873H55.6464Z" fill="#2A3133"/>
<path fill-rule="evenodd" clip-rule="evenodd" d="M55.7289 7.9873H55.8674L56.0663 8.5795L56.2666 7.9873H56.4022V8.68665H56.3115V8.20389C56.3115 8.17024 56.3124 8.13518 56.3124 8.09693L56.1123 8.68665H56.0192L55.8185 8.09693V8.11888C55.8185 8.13553 55.8198 8.16156 55.8198 8.19663C55.8212 8.23222 55.8212 8.25773 55.8212 8.27437V8.68665H55.7289V7.9873Z" fill="#2A3133"/>
<path fill-rule="evenodd" clip-rule="evenodd" d="M9.44987 16.1738C8.66357 16.8679 7.36336 17.3009 5.70045 17.3009C4.41174 17.3009 3.7774 17.004 3.56471 16.6954C3.43472 16.5156 3.4009 15.8643 3.38514 15.455C3.37522 15.2386 3.36264 14.5568 3.35698 13.5748C3.3545 10.8704 3.36265 7.30324 3.37929 6.98093C3.38832 6.82863 3.41436 6.70236 3.45243 6.59611C3.48059 6.5676 3.51672 6.54457 3.56471 6.52332C3.69664 6.4578 4.29876 6.40874 4.62355 6.40874C5.89649 6.40874 7.75367 6.60443 9.25312 8.03871C9.95547 8.70741 10.8181 10.043 10.8181 12.1129C10.8181 13.7932 10.4786 15.2606 9.44987 16.1738ZM11.422 7.50088C9.64556 5.64246 6.92239 5.64246 4.88494 5.64246H4.58671V5.61926L0.00938594 5.62121L0 6.01719C0 6.01719 1.2292 6.02038 1.29048 6.9827C1.31988 7.4497 1.31403 16.1012 1.2864 16.6136C1.23399 17.5752 0.51357 17.5817 0.0841193 17.5817C0.0830567 17.5817 0.0782752 17.9724 0.0782752 17.9724H3.35131C4.10537 17.9777 4.99491 17.986 5.7697 17.986C8.78453 17.986 10.4772 16.9553 11.2266 16.1896C12.139 15.2606 13.0036 13.6958 13.0036 11.6408C13.0036 9.70179 12.237 8.35022 11.422 7.50088Z" fill="#2A3133"/>
<path fill-rule="evenodd" clip-rule="evenodd" d="M35.7723 17.9896C35.1195 17.9896 30.93 17.9864 30.93 17.9864C30.93 17.9864 30.9265 17.6581 30.93 17.6581C31.2916 17.6581 31.91 17.657 31.9538 16.8739C31.9639 16.655 32.0032 14.6457 32.0032 12.705C32.0032 10.9284 31.9688 9.20933 31.9563 9.02746C31.9067 8.24205 30.8647 8.24116 30.8647 8.24116L30.8724 7.91868L34.7478 7.91797L34.7439 8.23815C34.3801 8.23815 33.7697 8.24205 33.7261 9.02622C33.7146 9.23005 33.7065 11.0162 33.7065 12.8316C33.716 13.7181 33.719 14.9944 33.8044 15.9134C33.9057 16.9993 33.7998 17.2869 35.253 17.2869C35.4094 17.2869 35.3832 17.2883 35.6973 17.2805C36.7247 17.2595 37.1541 17.1252 37.3788 16.716C37.5067 16.482 37.798 15.9261 37.798 15.9261L38.2852 15.9282L37.1384 18.174C37.1384 18.174 36.4263 17.9896 35.7723 17.9896Z" fill="#2A3133"/>
<path fill-rule="evenodd" clip-rule="evenodd" d="M18.2123 13.8839H15.6729C15.6168 13.8839 15.6049 13.8428 15.6168 13.7911L16.8892 10.5258C16.9018 10.4723 16.9296 10.4063 16.971 10.4063C17.0121 10.4063 17.0261 10.4723 17.0415 10.5258L18.2814 13.8029C18.2962 13.8428 18.2814 13.8839 18.2123 13.8839ZM21.8972 18.0096C21.8972 18.0096 21.8592 17.9733 21.083 16.272C20.1699 14.2667 17.9913 8.83989 17.6606 8.11133C17.5227 7.80531 17.4407 7.68701 17.3176 7.68701C17.1782 7.68701 17.0952 7.83117 16.9296 8.21581L13.8317 15.6732C13.735 15.8928 13.6484 16.0956 13.5728 16.2693C13.1501 17.2311 12.8092 17.5396 12.5409 17.6582C12.4592 17.688 12.3726 17.7073 12.2774 17.7073C11.9315 17.7073 11.8291 17.7053 11.8291 17.7053V18.0144L14.913 18.0158C14.913 18.0158 14.9152 17.7073 14.913 17.7073C14.343 17.7073 14.0968 17.6685 14.2532 17.2518L14.5264 16.5537C14.5264 16.5528 14.5264 16.5514 14.5273 16.5514L15.2736 14.6533C15.3002 14.5719 15.3289 14.5474 15.3969 14.5474H18.476C18.5415 14.5474 18.5844 14.5719 18.6122 14.6358V14.6454L19.6345 17.2529C19.7911 17.6685 19.5444 17.7073 18.9759 17.7073C18.9722 17.7073 18.9759 18.0158 18.9759 18.0158L21.8972 18.0096Z" fill="#2A3133"/>
<mask id="mask0" mask-type="alpha" maskUnits="userSpaceOnUse" x="22" y="7" width="33" height="12">
<path d="M22.7806 7.68445H54.5346V18.191H22.7806V7.68445Z" fill="white"/>
</mask>
<g mask="url(#mask0)">
<path fill-rule="evenodd" clip-rule="evenodd" d="M43.7043 13.882H41.1639C41.1088 13.882 41.0938 13.8414 41.1088 13.7887L42.3804 10.5241C42.394 10.4703 42.4214 10.4057 42.4616 10.4057C42.5031 10.4057 42.5157 10.4703 42.5309 10.5241L43.7734 13.802C43.7883 13.8414 43.7734 13.882 43.7043 13.882ZM47.8699 17.7053C47.7743 17.7053 47.6866 17.6868 47.6057 17.6582C47.3374 17.5386 46.9967 17.2298 46.5752 16.2692C45.6922 14.2523 43.4814 8.8391 43.1528 8.10929C43.016 7.80328 42.9304 7.68445 42.8073 7.68445C42.668 7.68445 42.586 7.83002 42.4214 8.2152L39.3216 15.6694C39.2269 15.8913 39.1442 16.0967 39.0623 16.2692C38.3253 17.8432 38.2227 18.0139 38.2227 18.0139H40.4028C40.4028 18.0139 40.4061 17.7053 40.4028 17.7053C39.8348 17.7053 39.5874 17.6675 39.7442 17.2482L40.0174 16.5515C40.0174 16.5515 40.0183 16.5515 40.0206 16.5497L40.7644 14.6504C40.7933 14.5716 40.8196 14.5466 40.8885 14.5466H43.9668C44.0339 14.5466 44.0751 14.5709 44.1017 14.6338L44.1049 14.6431L45.1264 17.2517C45.282 17.6684 45.0355 17.7053 44.4669 17.7053C44.463 17.7053 44.4669 18.0157 44.4669 18.0157L48.3187 18.0139V17.7046C48.3187 17.7046 48.2149 17.7053 47.8699 17.7053Z" fill="#2A3133"/>
<path fill-rule="evenodd" clip-rule="evenodd" d="M29.9314 15.9541C29.9314 15.9541 29.6382 16.5114 29.5106 16.7462C29.2893 17.1527 28.8561 17.2885 27.8309 17.3097C27.5169 17.3159 27.3271 17.3159 27.1704 17.3159C25.7168 17.3159 25.8227 17.0271 25.7216 15.9413C25.6341 15.0222 25.632 13.745 25.6226 12.8581C25.6226 11.0445 25.632 9.25766 25.642 9.05401C25.6872 8.27037 26.2971 8.26718 26.6612 8.26718L26.6648 7.94629L22.7885 7.94717L22.7806 8.26824C22.7806 8.26824 23.8219 8.27037 23.8741 9.05578C23.8848 9.2373 23.9218 10.956 23.9218 12.7328C23.9184 14.6726 23.8826 16.6853 23.8699 16.9003C23.8263 17.6832 23.209 17.6869 22.8463 17.6869C22.8436 17.6869 22.8463 18.014 22.8463 18.014C22.8463 18.014 26.0037 18.0117 28.0454 18.0186C29.0989 18.0578 29.2696 18.2018 29.2696 18.2018L30.4179 15.9562L29.9314 15.9541Z" fill="#2A3133"/>
<path fill-rule="evenodd" clip-rule="evenodd" d="M52.2719 11.9587L51.8841 11.6805C50.7379 10.8432 50.4225 10.3785 50.4225 9.76966C50.4225 8.9738 51.042 8.40215 52.0658 8.40215C53.145 8.40215 53.8496 8.69842 53.8496 10.0372H54.2123C54.2158 9.99528 54.2167 9.94551 54.2167 9.88813C54.2167 8.85426 54.2732 8.07984 54.2732 8.07984C54.2732 8.07984 54.2029 8.04406 54.08 8.01785C53.7209 7.92382 53.1412 7.79224 52.2441 7.79224C50.326 7.79224 49.0557 8.83939 49.0557 10.3004C49.0557 11.3743 49.5801 12.3037 51.0971 13.4445L51.7328 13.923C52.8788 14.7718 53.0862 15.3957 53.0862 16.046C53.0862 16.748 52.4789 17.5577 51.2352 17.5577C49.7122 17.5577 49.1961 17.0361 49.1961 15.3414C49.1961 15.3366 49.1961 15.3332 49.1949 15.3283H48.8485C48.8427 15.366 48.837 15.4067 48.8358 15.4519C48.8207 15.6656 48.7644 17.6937 48.7644 17.6937C48.7644 17.6937 48.8078 17.7569 49.0291 17.8504C49.6221 18.1024 50.2429 18.197 51.042 18.197C51.7743 18.197 52.5469 18.0762 53.2379 17.6505C54.2307 17.0282 54.5346 16.1122 54.5346 15.3428C54.5346 14.0826 53.9282 13.1936 52.2719 11.9587Z" fill="#2A3133"/>
</g>
<path fill-rule="evenodd" clip-rule="evenodd" d="M30.0801 0.0332866C30.4598 0.0332866 30.6123 0.00158691 30.6123 0.00158691L30.4864 0.288478C30.4864 0.288478 30.145 0.261914 30.145 0.514626C30.145 0.514626 30.145 5.3985 30.1565 5.5763L29.5342 5.57949C29.061 4.94674 28.3347 3.93624 27.6827 3.03909C26.9807 2.07393 26.3344 1.21166 26.2195 1.09443V3.63129C26.2195 5.07637 26.2636 5.54566 26.2636 5.54566C26.1859 5.54566 26.0435 5.52866 25.8081 5.52866C25.5037 5.52866 25.1029 5.54566 25.1029 5.54566L25.2308 5.25824C25.2308 5.25824 25.7035 5.2864 25.7079 5.03351C25.7414 3.18714 25.7341 0.805767 25.7341 0.619111C25.7341 0.432809 25.5113 0.32 25.2625 0.314156H25.1587L25.2841 0.00353494C25.2841 0.00353494 25.5528 0.0313386 25.8512 0.0313386C26.1504 0.0313386 26.3311 0.00388912 26.3311 0.00388912C26.3311 0.00388912 27.0286 0.976662 27.7402 1.94483C28.589 3.09912 29.5567 4.37472 29.6512 4.4723C29.6806 3.18448 29.6432 0.745378 29.6432 0.744847L29.6077 0.00477459C29.6077 0.00477459 29.7001 0.0332866 30.0801 0.0332866Z" fill="#2A3133"/>
<path fill-rule="evenodd" clip-rule="evenodd" d="M23.889 0.0391307C23.6667 0.0391307 23.369 0.00406622 23.369 0.00406622L23.2461 0.290072C23.2461 0.290072 23.6097 0.275373 23.6097 0.513032C23.6097 0.513032 23.6049 3.09168 23.6049 3.70106C23.6049 4.81303 23.0427 5.18546 22.241 5.18546C20.9692 5.18546 20.9292 4.26103 20.9292 3.41647C20.9292 3.41647 20.957 1.48952 20.957 0.562264C20.957 0.244027 21.3502 0.289186 21.3502 0.289186L21.4747 0.00158691C21.4747 0.00158691 20.934 0.0370055 20.6374 0.0370055C20.3404 0.0370055 19.8022 0.00158691 19.8022 0.00158691L19.6791 0.289186C19.6791 0.289186 20.1536 0.234641 20.1536 0.475488C20.1536 0.475488 20.1532 2.545 20.1532 2.58113C20.1532 4.16274 20.1553 4.47461 20.4024 4.87802C20.6965 5.35724 21.4699 5.61987 22.2149 5.61987C22.907 5.61987 23.3696 5.40346 23.6782 5.04237C23.9935 4.67277 24.0999 4.1523 24.0999 3.55815C24.0999 2.99003 24.099 0.634164 24.124 0.515511C24.124 0.242434 24.4992 0.291311 24.4992 0.291311L24.6266 0.00158691C24.6266 0.00158691 24.1112 0.0391307 23.889 0.0391307Z" fill="#2A3133"/>
<path fill-rule="evenodd" clip-rule="evenodd" d="M32.8377 0.0386063C32.0202 0.0386063 31.065 0.00301058 31.0593 0.0026564L30.7572 0.765751L30.9708 0.919468C31.1471 0.498163 31.2677 0.47213 31.5421 0.47213C31.5421 0.47213 32.4576 0.493736 32.4656 0.494444C32.4663 0.500997 32.4798 0.700403 32.4798 1.98486C32.4798 1.98486 32.4771 4.818 32.4771 5.02697C32.4771 5.29367 31.9935 5.25435 31.9935 5.25435L31.8695 5.53894C31.8695 5.53894 32.4939 5.5037 32.8549 5.50423C33.2523 5.50423 33.6447 5.53894 33.6447 5.53894L33.769 5.25435C33.769 5.25435 33.2165 5.27667 33.2165 5.02449C33.2165 5.02537 33.1986 3.9784 33.1986 2.34153C33.1986 1.98397 33.2159 0.499048 33.2163 0.496569C33.2622 0.496569 33.9867 0.46912 33.9867 0.46912C34.5027 0.46912 34.5093 0.484704 34.6566 0.875549C34.6578 0.880153 34.8404 0.875549 34.8404 0.875549L34.8555 0C34.8555 0 33.6151 0.0386063 32.8377 0.0386063Z" fill="#2A3133"/>
<path fill-rule="evenodd" clip-rule="evenodd" d="M0 2.39544H16.8632V2.10413H0V2.39544Z" fill="#2A3133"/>
<path fill-rule="evenodd" clip-rule="evenodd" d="M37.6716 2.39544H54.5346V2.10413H37.6716V2.39544Z" fill="#2A3133"/>
</svg>
